<svg xmlns="http://www.w3.org/2000/svg" viewBox="0 0 58 58">
  <defs>
    <linearGradient id="g" x1="0" y1="0" x2="1" y2="1">
      <stop offset="0" stop-color="#2f63e6"/>
      <stop offset="1" stop-color="#5b8bf5"/>
    </linearGradient>
  </defs>
  <rect width="58" height="58" rx="17" fill="url(#g)"/>
  <!-- "词" — Noto Sans SC Bold(OFL) 글리프 아웃라인 인라인. 외부 폰트 의존 없음 -->
  <path fill="#ffffff" transform="translate(14.465 42.085) scale(0.03 -0.03)" d="M87 756 163 829Q190 807 220.5 781Q251 755 278 728.5Q305 702 323 680L242 599Q226 621 200 648.5Q174 676 144 704.5Q114 733 87 756ZM165 -73 142 36 167 75 358 217Q364 193 373.5 162.5Q383 132 391 114Q325 63 283.5 30.5Q242 -2 218.5 -21.5Q195 -41 183.5 -52Q172 -63 165 -73ZM38 541H222V426H38ZM367 805H856V695H367ZM385 626H767V526H385ZM416 453H520V63H416ZM484 453H734V123H484V224H628V352H484ZM816 805H931V48Q931 1 920 -26Q909 -53 880 -68Q851 -82 806.5 -86Q762 -90 698 -90Q696 -73 690 -51.5Q684 -30 676.5 -8.5Q669 13 660 29Q687 27 714.5 27Q742 27 763 27Q784 27 793 27Q806 27 811 32Q816 37 816 50ZM165 -73Q160 -61 148.5 -46Q137 -31 124 -16.5Q111 -2 101 6Q113 16 126.5 33.5Q140 51 150 74Q160 97 160 126V541H272V65Q272 65 261.5 55Q251 45 235 29Q219 13 203 -5.5Q187 -24 176 -42Q165 -60 165 -73Z"/>
</svg>
